<svg width="509" height="108" viewBox="0 0 509 108" fill="none" xmlns="http://www.w3.org/2000/svg">
<rect x="6.5" y="5.5" width="497" height="96" stroke="url(#paint0_linear_302_11)" stroke-linecap="round" stroke-dasharray="7 7"/>
<circle cx="503.5" cy="102.5" r="5" fill="black" stroke="#C54CF6" stroke-linecap="round" stroke-dasharray="8 6"/>
<circle cx="5.5" cy="5.5" r="5" fill="black" stroke="#E73B2C" stroke-linecap="round" stroke-dasharray="8 6"/>
<circle cx="5.5" cy="102.5" r="5" fill="black" stroke="#E73B2C" stroke-linecap="round" stroke-dasharray="8 6"/>
<circle cx="503.5" cy="5.5" r="5" fill="black" stroke="#C54CF6" stroke-linecap="round" stroke-dasharray="8 6"/>
<path d="M57.1245 42.1758C56.8427 39.5397 55.6555 37.4871 53.5627 36.0181C51.49 34.5491 48.7935 33.8146 45.4732 33.8146C43.1389 33.8146 41.1367 34.1668 39.4664 34.8711C37.7962 35.5754 36.5184 36.5312 35.633 37.7386C34.7476 38.946 34.2948 40.3245 34.2747 41.8739C34.2747 43.1618 34.5665 44.2786 35.15 45.2244C35.7537 46.1702 36.5687 46.9751 37.595 47.6392C38.6213 48.2831 39.7582 48.8265 41.0059 49.2692C42.2535 49.7119 43.5112 50.0842 44.7789 50.386L50.5744 51.8349C52.9087 52.3782 55.1524 53.1127 57.3056 54.0384C59.4789 54.964 61.4208 56.1312 63.1312 57.5398C64.8618 58.9484 66.2302 60.6488 67.2363 62.641C68.2425 64.6332 68.7456 66.9674 68.7456 69.6438C68.7456 73.266 67.8199 76.4555 65.9686 79.2124C64.1172 81.9491 61.4409 84.0922 57.9395 85.6417C54.4582 87.171 50.2424 87.9357 45.2921 87.9357C40.4827 87.9357 36.3071 87.1912 32.7654 85.7021C29.2439 84.2129 26.487 82.0397 24.4949 79.1822C22.5228 76.3247 21.4563 72.8434 21.2953 68.7383H32.3127C32.4737 70.8915 33.1377 72.6824 34.3049 74.1111C35.472 75.5399 36.9913 76.6064 38.8627 77.3107C40.7543 78.015 42.8672 78.3672 45.2015 78.3672C47.6364 78.3672 49.7695 78.005 51.6007 77.2805C53.452 76.536 54.9009 75.5097 55.9473 74.2017C56.9937 72.8736 57.5269 71.3241 57.5471 69.5533C57.5269 67.9434 57.054 66.6153 56.1284 65.5689C55.2027 64.5024 53.9048 63.6169 52.2346 62.9126C50.5845 62.1882 48.6526 61.5443 46.4391 60.9808L39.4061 59.1697C34.3149 57.8617 30.2903 55.8796 27.3322 53.2234C24.3942 50.547 22.9252 46.9953 22.9252 42.5682C22.9252 38.9259 23.9113 35.7364 25.8833 32.9996C27.8755 30.2629 30.5821 28.1399 34.003 26.6307C37.4239 25.1013 41.2976 24.3366 45.6241 24.3366C50.011 24.3366 53.8545 25.1013 57.1547 26.6307C60.475 28.1399 63.0809 30.2428 64.9725 32.9393C66.8641 35.6156 67.84 38.6945 67.9004 42.1758H57.1245ZM133.967 56.0909C133.967 62.7517 132.719 68.4566 130.224 73.2056C127.749 77.9345 124.368 81.5567 120.082 84.0721C115.816 86.5875 110.976 87.8452 105.563 87.8452C100.15 87.8452 95.3005 86.5875 91.0143 84.0721C86.7482 81.5366 83.3675 77.9044 80.8722 73.1754C78.3971 68.4264 77.1595 62.7315 77.1595 56.0909C77.1595 49.4302 78.3971 43.7353 80.8722 39.0064C83.3675 34.2573 86.7482 30.6251 91.0143 28.1097C95.3005 25.5943 100.15 24.3366 105.563 24.3366C110.976 24.3366 115.816 25.5943 120.082 28.1097C124.368 30.6251 127.749 34.2573 130.224 39.0064C132.719 43.7353 133.967 49.4302 133.967 56.0909ZM122.708 56.0909C122.708 51.4022 121.974 47.448 120.505 44.2283C119.056 40.9885 117.044 38.5436 114.468 36.8935C111.892 35.2232 108.924 34.3881 105.563 34.3881C102.203 34.3881 99.2346 35.2232 96.6588 36.8935C94.0831 38.5436 92.0607 40.9885 90.5917 44.2283C89.1428 47.448 88.4184 51.4022 88.4184 56.0909C88.4184 60.7796 89.1428 64.7438 90.5917 67.9837C92.0607 71.2034 94.0831 73.6483 96.6588 75.3185C99.2346 76.9686 102.203 77.7937 105.563 77.7937C108.924 77.7937 111.892 76.9686 114.468 75.3185C117.044 73.6483 119.056 71.2034 120.505 67.9837C121.974 64.7438 122.708 60.7796 122.708 56.0909ZM144.554 87V25.1818H184.157V34.5692H155.753V51.3519H181.44V60.7393H155.753V87H144.554ZM191.642 34.5692V25.1818H240.964V34.5692H221.857V87H210.749V34.5692H191.642ZM263.482 87L246.035 25.1818H258.079L269.217 70.6097H269.79L281.683 25.1818H292.64L304.563 70.6399H305.107L316.245 25.1818H328.288L310.842 87H299.794L287.418 43.6246H286.935L274.529 87H263.482ZM338.181 87H326.228L347.991 25.1818H361.816L383.609 87H371.656L355.145 37.8594H354.662L338.181 87ZM338.574 62.7617H371.173V71.7567H338.574V62.7617ZM391.752 87V25.1818H414.933C419.682 25.1818 423.667 26.0069 426.887 27.657C430.126 29.3071 432.571 31.6212 434.221 34.5994C435.892 37.5575 436.727 41.0086 436.727 44.9528C436.727 48.917 435.882 52.3581 434.191 55.2759C432.521 58.1736 430.056 60.4174 426.796 62.0071C423.536 63.5767 419.532 64.3615 414.782 64.3615H398.271V55.0646H413.273C416.05 55.0646 418.324 54.6823 420.095 53.9176C421.866 53.1328 423.174 51.9959 424.019 50.5067C424.884 48.9975 425.317 47.1462 425.317 44.9528C425.317 42.7594 424.884 40.8879 424.019 39.3384C423.154 37.7688 421.836 36.5816 420.065 35.7766C418.294 34.9516 416.01 34.5391 413.213 34.5391H402.95V87H391.752ZM423.687 58.9886L438.991 87H426.494L411.462 58.9886H423.687ZM447.035 87V25.1818H487.241V34.5692H458.233V51.3519H485.158V60.7393H458.233V77.6126H487.482V87H447.035Z" fill="url(#paint1_linear_302_11)"/>
<defs>
<linearGradient id="paint0_linear_302_11" x1="6" y1="53.5" x2="504" y2="53.5" gradientUnits="userSpaceOnUse">
<stop stop-color="#E43B29"/>
<stop offset="0.604859" stop-color="#D145A7"/>
<stop offset="1" stop-color="#C44BF6"/>
</linearGradient>
<linearGradient id="paint1_linear_302_11" x1="6" y1="53.5" x2="504" y2="53.5" gradientUnits="userSpaceOnUse">
<stop stop-color="#E73B2C"/>
<stop offset="0.538017" stop-color="#D3459D"/>
<stop offset="1" stop-color="#C54BF1"/>
</linearGradient>
</defs>
</svg>
